Coordinates
version=1
nRows=8
nColumns=63
inDegrees=yes

Units are S.I. units (second, meters, Newtons, ...)
If the header above contains a line with 'inDegrees', this indicates whether rotational values are in degrees (yes) or radians (no).

endheader
time	pelvis_tilt	pelvis_list	pelvis_rotation	pelvis_tx	pelvis_ty	pelvis_tz	hip_flexion_r	hip_adduction_r	hip_rotation_r	knee_angle_r	knee_angle_r_beta	ankle_angle_r	subtalar_angle_r	mtp_angle_r	hip_flexion_l	hip_adduction_l	hip_rotation_l	knee_angle_l	knee_angle_l_beta	ankle_angle_l	subtalar_angle_l	mtp_angle_l	L5_S1_Flex_Ext	L5_S1_Lat_Bending	L5_S1_axial_rotation	L4_L5_Flex_Ext	L4_L5_Lat_Bending	L4_L5_axial_rotation	L3_L4_Flex_Ext	L3_L4_Lat_Bending	L3_L4_axial_rotation	L2_L3_Flex_Ext	L2_L3_Lat_Bending	L2_L3_axial_rotation	L1_L2_Flex_Ext	L1_L2_Lat_Bending	L1_L2_axial_rotation	L1_T12_Flex_Ext	L1_T12_Lat_Bending	L1_T12_axial_rotation	Abs_r3	Abs_r2	Abs_r1	Abs_t1	Abs_t2	neck_flexion	neck_bending	neck_rotation	arm_flex_r	arm_add_r	arm_rot_r	elbow_flex_r	pro_sup_r	wrist_flex_r	wrist_dev_r	arm_flex_l	arm_add_l	arm_rot_l	elbow_flex_l	pro_sup_l	wrist_flex_l	wrist_dev_l
0.000000	0.951448	-4.294967	95.770228	0.137957	0.868473	0.419054	4.064150	-5.399071	-24.312441	14.377947	0.250943	29.130580	18.586135	0.000000	9.374104	0.875760	-3.230774	18.290079	0.319222	27.320961	-0.153802	0.000000	-0.036404	-0.501525	1.828446	-0.067606	-0.667029	1.942724	-0.059808	-1.219408	1.942724	-0.041606	-1.219408	1.599890	-0.033805	-1.022710	1.485613	-0.020801	-0.776863	1.371335	-0.260029	-5.673353	10.169269	0.000000	0.000000	18.339058	2.120120	-16.859403	5.755624	-6.881693	39.145413	52.211250	75.083232	-0.455947	0.862745	24.526594	-14.106481	72.170542	61.622678	54.598697	-0.723747	8.874766
0.016949	1.140476	-4.238907	95.593321	0.138218	0.868565	0.418057	3.959165	-5.046519	-23.978340	14.171142	0.247333	29.234059	18.530824	0.000000	9.219504	0.637835	-3.329018	18.473527	0.322424	26.400152	-1.247098	0.000000	-0.028071	-0.477830	1.792264	-0.052130	-0.635514	1.904280	-0.046118	-1.161796	1.904280	-0.032082	-1.161796	1.568231	-0.026067	-0.974391	1.456214	-0.016040	-0.740159	1.344198	-0.200508	-5.405310	9.968033	0.000000	0.000000	18.398529	2.752804	-15.481492	4.731827	-6.482651	36.923891	52.683440	76.503947	-0.589900	-0.682514	22.600689	-14.071617	68.758909	62.525050	53.079792	1.169126	13.103107
0.033898	1.296508	-4.199604	95.482877	0.138439	0.868676	0.417462	3.906769	-4.771006	-23.714918	14.038822	0.245024	29.328691	18.483628	0.000000	9.102800	0.449197	-3.386207	18.584314	0.324357	25.645585	-2.124391	0.000000	-0.021568	-0.460004	1.771893	-0.040054	-0.611805	1.882636	-0.035434	-1.118453	1.882636	-0.024650	-1.118453	1.550406	-0.020028	-0.938039	1.439663	-0.012324	-0.712546	1.328919	-0.154058	-5.203653	9.854735	0.000000	0.000000	18.367028	3.261564	-14.428624	4.053256	-6.178372	35.710450	52.791760	77.588603	-0.974894	-2.036434	21.212751	-14.046126	66.297234	63.096460	52.610325	2.753149	16.151280
0.050847	1.422918	-4.176787	95.428284	0.138623	0.868800	0.417221	3.902686	-4.564779	-23.512668	13.972758	0.243871	29.414181	18.444059	0.000000	9.021073	0.304505	-3.408626	18.630852	0.325170	25.043746	-2.805619	0.000000	-0.016615	-0.447211	1.764978	-0.030855	-0.594791	1.875289	-0.027296	-1.087349	1.875289	-0.018989	-1.087349	1.544356	-0.015428	-0.911953	1.434045	-0.009494	-0.692730	1.323734	-0.118676	-5.058941	9.816278	0.000000	0.000000	18.256939	3.660759	-13.660386	3.674714	-5.967074	35.360495	52.625760	78.380239	-1.545574	-3.180008	20.287025	-14.042715	64.669170	63.396970	53.069140	4.049570	18.122308
0.067797	1.523078	-4.170184	95.418931	0.138772	0.868929	0.417285	3.942643	-4.420084	-23.362083	13.964723	0.243730	29.490236	18.411629	0.000000	8.971403	0.198421	-3.402562	18.621555	0.325007	24.581123	-3.310722	0.000000	-0.012930	-0.438618	1.769165	-0.024013	-0.583362	1.879738	-0.021243	-1.066455	1.879738	-0.014778	-1.066455	1.548019	-0.012007	-0.894429	1.437447	-0.007388	-0.679419	1.326874	-0.092359	-4.961732	9.839565	0.000000	0.000000	18.080645	3.964749	-13.136366	3.551009	-5.846977	35.729430	52.274992	78.921892	-2.236586	-4.094229	19.747758	-14.074089	63.758370	63.486641	54.335081	5.079638	19.119214
0.084746	1.600362	-4.179525	95.444207	0.138890	0.869057	0.417606	4.022364	-4.329168	-23.253654	14.006488	0.244459	29.556562	18.385851	0.000000	8.950871	0.125603	-3.374304	18.564837	0.324018	24.244201	-3.659639	0.000000	-0.010234	-0.433389	1.782099	-0.019006	-0.576407	1.893480	-0.016814	-1.053742	1.893480	-0.011697	-1.053742	1.559336	-0.009503	-0.883767	1.447955	-0.005848	-0.671320	1.336574	-0.073101	-4.902583	9.911498	0.000000	0.000000	17.850530	4.187895	-12.816152	3.636946	-5.816298	36.672661	51.829005	79.256600	-2.982576	-4.760088	19.519196	-14.152956	63.448485	63.425534	56.286991	5.864602	19.245023
0.101695	1.658144	-4.204540	95.493501	0.138977	0.869178	0.418137	4.137575	-4.284276	-23.177875	14.089825	0.245914	29.612868	18.366237	0.000000	8.956557	0.080713	-3.330137	18.469111	0.322347	24.019469	-3.872310	0.000000	-0.008246	-0.430690	1.801424	-0.015314	-0.572818	1.914013	-0.013547	-1.047180	1.914013	-0.009424	-1.047180	1.576246	-0.007657	-0.878263	1.463657	-0.004712	-0.667139	1.351068	-0.058901	-4.872053	10.018978	0.000000	0.000000	17.578975	4.344555	-12.659332	3.887330	-5.873257	38.045592	51.377353	79.427401	-3.718188	-5.158577	19.525584	-14.292021	63.623169	63.273710	58.803714	6.425710	18.602756
0.118644	1.699795	-4.244957	95.556199	0.139037	0.869285	0.418830	4.284000	-4.277654	-23.125237	14.206505	0.247950	29.658858	18.352299	0.000000	8.985542	0.058410	-3.276348	18.342790	0.320142	23.893414	-3.968674	0.000000	-0.006685	-0.429686	1.824785	-0.012415	-0.571483	1.938835	-0.010983	-1.044739	1.938835	-0.007641	-1.044739	1.596687	-0.006208	-0.876216	1.482638	-0.003820	-0.665584	1.368589	-0.047752	-4.860698	10.148909	0.000000	0.000000	17.278364	4.449089	-12.625495	4.256967	-6.016071	39.703629	51.009584	79.477333	-4.378070	-5.270687	19.691167	-14.503992	64.166074	63.091230	61.764094	6.784213	17.295438
